<svg xmlns="http://www.w3.org/2000/svg" xmlns:xlink="http://www.w3.org/1999/xlink" width="500" zoomAndPan="magnify" viewBox="0 0 375 374.999991" height="500" preserveAspectRatio="xMidYMid meet" version="1.0"><defs><g/><clipPath id="79e490b4c7"><path d="M 25 73 L 143 73 L 143 285 L 25 285 Z M 25 73 " clip-rule="nonzero"/></clipPath><clipPath id="09bafc0273"><path d="M -35.621094 177.046875 L 64.273438 70.648438 L 208.957031 206.484375 L 109.058594 312.882812 Z M -35.621094 177.046875 " clip-rule="nonzero"/></clipPath><clipPath id="85f36f4b60"><path d="M -35.621094 177.046875 L 64.273438 70.648438 L 208.957031 206.484375 L 109.058594 312.882812 Z M -35.621094 177.046875 " clip-rule="nonzero"/></clipPath></defs><g fill="#ffffff" fill-opacity="1"><g transform="translate(159.013661, 131.376414)"><g><path d="M 22.359375 -53.515625 C 25.097656 -53.515625 27.585938 -53.125 29.828125 -52.34375 C 32.078125 -51.5625 34.007812 -50.445312 35.625 -49 C 37.238281 -47.5625 38.484375 -45.828125 39.359375 -43.796875 C 40.242188 -41.773438 40.6875 -39.515625 40.6875 -37.015625 L 29.6875 -37.015625 C 29.6875 -39.078125 29.023438 -40.691406 27.703125 -41.859375 C 26.390625 -43.035156 24.609375 -43.625 22.359375 -43.625 C 20.066406 -43.625 18.242188 -43.035156 16.890625 -41.859375 C 15.546875 -40.691406 14.875 -39.078125 14.875 -37.015625 L 14.875 -15.765625 C 14.875 -13.710938 15.519531 -12.097656 16.8125 -10.921875 C 18.113281 -9.753906 19.9375 -9.171875 22.28125 -9.171875 C 24.582031 -9.171875 26.390625 -9.78125 27.703125 -11 C 29.023438 -12.21875 29.6875 -13.804688 29.6875 -15.765625 L 40.6875 -15.765625 C 40.6875 -13.265625 40.242188 -11 39.359375 -8.96875 C 38.484375 -6.945312 37.238281 -5.210938 35.625 -3.765625 C 34.007812 -2.328125 32.078125 -1.21875 29.828125 -0.4375 C 27.585938 0.34375 25.070312 0.734375 22.28125 0.734375 C 19.5 0.734375 16.984375 0.34375 14.734375 -0.4375 C 12.484375 -1.21875 10.550781 -2.328125 8.9375 -3.765625 C 7.332031 -5.210938 6.085938 -6.945312 5.203125 -8.96875 C 4.328125 -11 3.890625 -13.265625 3.890625 -15.765625 L 3.890625 -37.015625 C 3.890625 -39.515625 4.328125 -41.773438 5.203125 -43.796875 C 6.085938 -45.828125 7.332031 -47.5625 8.9375 -49 C 10.550781 -50.445312 12.492188 -51.5625 14.765625 -52.34375 C 17.046875 -53.125 19.578125 -53.515625 22.359375 -53.515625 Z M 22.359375 -53.515625 "/></g></g></g><g fill="#ffffff" fill-opacity="1"><g transform="translate(204.467468, 131.376414)"><g><path d="M 14.515625 -15.765625 C 14.515625 -13.660156 15.1875 -11.984375 16.53125 -10.734375 C 17.875 -9.492188 19.695312 -8.875 22 -8.875 C 24.289062 -8.875 26.109375 -9.492188 27.453125 -10.734375 C 28.796875 -11.984375 29.46875 -13.660156 29.46875 -15.765625 L 29.46875 -37.09375 C 29.46875 -39.195312 28.796875 -40.867188 27.453125 -42.109375 C 26.109375 -43.359375 24.289062 -43.984375 22 -43.984375 C 19.695312 -43.984375 17.875 -43.359375 16.53125 -42.109375 C 15.1875 -40.867188 14.515625 -39.195312 14.515625 -37.09375 Z M 3.515625 -37.09375 C 3.515625 -39.582031 3.953125 -41.828125 4.828125 -43.828125 C 5.710938 -45.835938 6.960938 -47.5625 8.578125 -49 C 10.191406 -50.445312 12.132812 -51.5625 14.40625 -52.34375 C 16.675781 -53.125 19.207031 -53.515625 22 -53.515625 C 24.78125 -53.515625 27.304688 -53.125 29.578125 -52.34375 C 31.847656 -51.5625 33.789062 -50.445312 35.40625 -49 C 37.019531 -47.5625 38.265625 -45.835938 39.140625 -43.828125 C 40.023438 -41.828125 40.46875 -39.582031 40.46875 -37.09375 L 40.46875 -15.765625 C 40.46875 -13.316406 40.015625 -11.078125 39.109375 -9.046875 C 38.203125 -7.023438 36.941406 -5.289062 35.328125 -3.84375 C 33.722656 -2.40625 31.78125 -1.28125 29.5 -0.46875 C 27.226562 0.332031 24.726562 0.734375 22 0.734375 C 19.207031 0.734375 16.675781 0.34375 14.40625 -0.4375 C 12.132812 -1.21875 10.191406 -2.328125 8.578125 -3.765625 C 6.960938 -5.210938 5.710938 -6.945312 4.828125 -8.96875 C 3.953125 -11 3.515625 -13.265625 3.515625 -15.765625 Z M 3.515625 -37.09375 "/></g></g></g><g fill="#ffffff" fill-opacity="1"><g transform="translate(249.921275, 131.376414)"><g><path d="M 22 -10.265625 C 24.238281 -10.265625 26.039062 -10.898438 27.40625 -12.171875 C 28.78125 -13.441406 29.46875 -15.128906 29.46875 -17.234375 L 29.46875 -35.625 C 29.46875 -37.675781 28.78125 -39.335938 27.40625 -40.609375 C 26.039062 -41.878906 24.238281 -42.515625 22 -42.515625 L 15.609375 -42.515625 L 15.609375 -10.265625 Z M 4.625 0 L 4.625 -52.78125 L 22 -52.78125 C 24.78125 -52.78125 27.304688 -52.375 29.578125 -51.5625 C 31.847656 -50.757812 33.789062 -49.601562 35.40625 -48.09375 C 37.019531 -46.582031 38.265625 -44.773438 39.140625 -42.671875 C 40.023438 -40.566406 40.46875 -38.21875 40.46875 -35.625 L 40.46875 -17.234375 C 40.46875 -14.640625 40.023438 -12.28125 39.140625 -10.15625 C 38.265625 -8.03125 37.019531 -6.222656 35.40625 -4.734375 C 33.789062 -3.242188 31.847656 -2.082031 29.578125 -1.25 C 27.304688 -0.414062 24.78125 0 22 0 Z M 4.625 0 "/></g></g></g><g fill="#ffffff" fill-opacity="1"><g transform="translate(295.375087, 131.376414)"><g><path d="M 5.859375 0 L 5.859375 -52.78125 L 39.21875 -52.78125 L 39.21875 -43.25 L 16.859375 -43.25 L 16.859375 -31.8125 L 36.65625 -31.8125 L 36.65625 -22.28125 L 16.859375 -22.28125 L 16.859375 -9.53125 L 39.21875 -9.53125 L 39.21875 0 Z M 5.859375 0 "/></g></g></g><g fill="#ffffff" fill-opacity="1"><g transform="translate(159.013661, 207.876409)"><g><path d="M 9.015625 -52.78125 L 11.734375 -17.734375 C 11.828125 -17.003906 11.875 -16.050781 11.875 -14.875 C 11.875 -13.707031 11.875 -12.5625 11.875 -11.4375 C 11.875 -10.113281 11.875 -8.742188 11.875 -7.328125 L 12.6875 -7.328125 C 12.6875 -8.742188 12.6875 -10.113281 12.6875 -11.4375 C 12.6875 -12.5625 12.695312 -13.707031 12.71875 -14.875 C 12.738281 -16.050781 12.800781 -17.003906 12.90625 -17.734375 L 17.015625 -52.78125 L 27.125 -52.78125 L 31.015625 -17.734375 C 31.109375 -17.003906 31.164062 -16.050781 31.1875 -14.875 C 31.21875 -13.707031 31.253906 -12.5625 31.296875 -11.4375 C 31.347656 -10.113281 31.375 -8.742188 31.375 -7.328125 L 32.1875 -7.328125 C 32.1875 -8.742188 32.1875 -10.113281 32.1875 -11.4375 C 32.1875 -12.5625 32.195312 -13.707031 32.21875 -14.875 C 32.238281 -16.050781 32.273438 -17.003906 32.328125 -17.734375 L 34.890625 -52.78125 L 43.25 -52.78125 L 37.90625 0 L 26.46875 0 L 22.734375 -34.828125 C 22.628906 -35.703125 22.5625 -36.738281 22.53125 -37.9375 C 22.507812 -39.132812 22.476562 -40.296875 22.4375 -41.421875 C 22.4375 -42.742188 22.4375 -44.085938 22.4375 -45.453125 L 21.703125 -45.453125 C 21.703125 -44.085938 21.703125 -42.742188 21.703125 -41.421875 C 21.648438 -40.296875 21.597656 -39.132812 21.546875 -37.9375 C 21.503906 -36.738281 21.429688 -35.703125 21.328125 -34.828125 L 17.234375 0 L 6.015625 0 L 0.734375 -52.78125 Z M 9.015625 -52.78125 "/></g></g></g><g fill="#ffffff" fill-opacity="1"><g transform="translate(204.467468, 207.876409)"><g><path d="M 5.5 0 L 5.5 -9.53125 L 16.5 -9.53125 L 16.5 -43.25 L 5.5 -43.25 L 5.5 -52.78125 L 38.484375 -52.78125 L 38.484375 -43.25 L 27.5 -43.25 L 27.5 -9.53125 L 38.484375 -9.53125 L 38.484375 0 Z M 5.5 0 "/></g></g></g><g fill="#ffffff" fill-opacity="1"><g transform="translate(249.921275, 207.876409)"><g><path d="M 2.5625 -52.78125 L 41.421875 -52.78125 L 41.421875 -42.515625 L 27.5 -42.515625 L 27.5 0 L 16.5 0 L 16.5 -42.515625 L 2.5625 -42.515625 Z M 2.5625 -52.78125 "/></g></g></g><g fill="#ffffff" fill-opacity="1"><g transform="translate(295.375087, 207.876409)"><g><path d="M 15.765625 -52.78125 L 15.765625 -32.546875 L 28.21875 -32.546875 L 28.21875 -52.78125 L 39.21875 -52.78125 L 39.21875 0 L 28.21875 0 L 28.21875 -22.28125 L 15.765625 -22.28125 L 15.765625 0 L 4.765625 0 L 4.765625 -52.78125 Z M 15.765625 -52.78125 "/></g></g></g><g fill="#ffffff" fill-opacity="1"><g transform="translate(159.013661, 284.376404)"><g><path d="M 19.796875 -8.71875 C 22.046875 -8.71875 23.828125 -9.378906 25.140625 -10.703125 C 26.460938 -12.023438 27.125 -13.785156 27.125 -15.984375 L 27.125 -42.59375 L 9.53125 -42.59375 L 9.53125 -52.859375 L 38.125 -52.859375 L 38.125 -15.984375 C 38.125 -13.390625 37.695312 -11.050781 36.84375 -8.96875 C 35.988281 -6.894531 34.765625 -5.140625 33.171875 -3.703125 C 31.585938 -2.265625 29.671875 -1.148438 27.421875 -0.359375 C 25.171875 0.421875 22.628906 0.8125 19.796875 0.8125 C 17.054688 0.8125 14.570312 0.429688 12.34375 -0.328125 C 10.125 -1.085938 8.21875 -2.160156 6.625 -3.546875 C 5.039062 -4.941406 3.804688 -6.640625 2.921875 -8.640625 C 2.046875 -10.648438 1.5625 -12.898438 1.46875 -15.390625 L 12.46875 -15.390625 C 12.5625 -13.390625 13.265625 -11.773438 14.578125 -10.546875 C 15.898438 -9.328125 17.640625 -8.71875 19.796875 -8.71875 Z M 19.796875 -8.71875 "/></g></g></g><g fill="#ffffff" fill-opacity="1"><g transform="translate(204.467468, 284.376404)"><g><path d="M 14.515625 -15.765625 C 14.515625 -13.660156 15.1875 -11.984375 16.53125 -10.734375 C 17.875 -9.492188 19.695312 -8.875 22 -8.875 C 24.289062 -8.875 26.109375 -9.492188 27.453125 -10.734375 C 28.796875 -11.984375 29.46875 -13.660156 29.46875 -15.765625 L 29.46875 -37.09375 C 29.46875 -39.195312 28.796875 -40.867188 27.453125 -42.109375 C 26.109375 -43.359375 24.289062 -43.984375 22 -43.984375 C 19.695312 -43.984375 17.875 -43.359375 16.53125 -42.109375 C 15.1875 -40.867188 14.515625 -39.195312 14.515625 -37.09375 Z M 3.515625 -37.09375 C 3.515625 -39.582031 3.953125 -41.828125 4.828125 -43.828125 C 5.710938 -45.835938 6.960938 -47.5625 8.578125 -49 C 10.191406 -50.445312 12.132812 -51.5625 14.40625 -52.34375 C 16.675781 -53.125 19.207031 -53.515625 22 -53.515625 C 24.78125 -53.515625 27.304688 -53.125 29.578125 -52.34375 C 31.847656 -51.5625 33.789062 -50.445312 35.40625 -49 C 37.019531 -47.5625 38.265625 -45.835938 39.140625 -43.828125 C 40.023438 -41.828125 40.46875 -39.582031 40.46875 -37.09375 L 40.46875 -15.765625 C 40.46875 -13.316406 40.015625 -11.078125 39.109375 -9.046875 C 38.203125 -7.023438 36.941406 -5.289062 35.328125 -3.84375 C 33.722656 -2.40625 31.78125 -1.28125 29.5 -0.46875 C 27.226562 0.332031 24.726562 0.734375 22 0.734375 C 19.207031 0.734375 16.675781 0.34375 14.40625 -0.4375 C 12.132812 -1.21875 10.191406 -2.328125 8.578125 -3.765625 C 6.960938 -5.210938 5.710938 -6.945312 4.828125 -8.96875 C 3.953125 -11 3.515625 -13.265625 3.515625 -15.765625 Z M 3.515625 -37.09375 "/></g></g></g><g fill="#ffffff" fill-opacity="1"><g transform="translate(249.921275, 284.376404)"><g><path d="M 22 0.734375 C 19.257812 0.734375 16.765625 0.378906 14.515625 -0.328125 C 12.265625 -1.035156 10.332031 -2.035156 8.71875 -3.328125 C 7.113281 -4.628906 5.84375 -6.207031 4.90625 -8.0625 C 3.976562 -9.914062 3.441406 -11.992188 3.296875 -14.296875 L 14.296875 -14.296875 C 14.679688 -10.628906 17.320312 -8.796875 22.21875 -8.796875 C 24.65625 -8.796875 26.507812 -9.320312 27.78125 -10.375 C 29.050781 -11.425781 29.6875 -12.832031 29.6875 -14.59375 C 29.6875 -16.15625 29.1875 -17.5 28.1875 -18.625 C 27.1875 -19.75 25.804688 -20.503906 24.046875 -20.890625 L 18.46875 -22.140625 C 13.6875 -23.210938 10.0625 -25.128906 7.59375 -27.890625 C 5.125 -30.648438 3.890625 -34.179688 3.890625 -38.484375 C 3.890625 -40.734375 4.316406 -42.785156 5.171875 -44.640625 C 6.023438 -46.503906 7.234375 -48.09375 8.796875 -49.40625 C 10.359375 -50.726562 12.25 -51.753906 14.46875 -52.484375 C 16.695312 -53.222656 19.207031 -53.59375 22 -53.59375 C 27.226562 -53.59375 31.414062 -52.296875 34.5625 -49.703125 C 37.71875 -47.117188 39.46875 -43.523438 39.8125 -38.921875 L 28.8125 -38.921875 C 28.613281 -40.535156 27.890625 -41.796875 26.640625 -42.703125 C 25.398438 -43.609375 23.753906 -44.0625 21.703125 -44.0625 C 19.546875 -44.0625 17.867188 -43.546875 16.671875 -42.515625 C 15.472656 -41.492188 14.875 -40.203125 14.875 -38.640625 C 14.875 -37.265625 15.335938 -36.078125 16.265625 -35.078125 C 17.203125 -34.078125 18.550781 -33.378906 20.3125 -32.984375 L 26.171875 -31.671875 C 30.910156 -30.597656 34.515625 -28.65625 36.984375 -25.84375 C 39.453125 -23.03125 40.6875 -19.453125 40.6875 -15.109375 C 40.6875 -12.753906 40.242188 -10.613281 39.359375 -8.6875 C 38.484375 -6.757812 37.226562 -5.097656 35.59375 -3.703125 C 33.957031 -2.304688 31.988281 -1.21875 29.6875 -0.4375 C 27.394531 0.34375 24.832031 0.734375 22 0.734375 Z M 22 0.734375 "/></g></g></g><g fill="#ffffff" fill-opacity="1"><g transform="translate(295.375087, 284.376404)"><g><path d="M 15.765625 -52.78125 L 15.765625 -32.546875 L 28.21875 -32.546875 L 28.21875 -52.78125 L 39.21875 -52.78125 L 39.21875 0 L 28.21875 0 L 28.21875 -22.28125 L 15.765625 -22.28125 L 15.765625 0 L 4.765625 0 L 4.765625 -52.78125 Z M 15.765625 -52.78125 "/></g></g></g><g clip-path="url(#79e490b4c7)"><g clip-path="url(#09bafc0273)"><g clip-path="url(#85f36f4b60)"><path fill="#ffffff" d="M 120.300781 134.824219 L 113.125 210.871094 C 113.121094 210.941406 113.152344 211.003906 113.148438 211.085938 L 108.527344 260.101562 C 108.277344 262.757812 110.226562 265.117188 112.890625 265.367188 C 114.4375 265.511719 115.878906 264.914062 116.875 263.855469 C 117.582031 263.097656 118.054688 262.109375 118.160156 260.992188 L 122.796875 211.800781 C 122.8125 211.722656 122.777344 211.65625 122.777344 211.582031 L 129.9375 135.714844 C 130.1875 133.058594 128.230469 130.695312 125.574219 130.449219 C 122.914062 130.203125 120.558594 132.144531 120.300781 134.824219 Z M 100.152344 115.90625 L 95.515625 165.101562 C 95.269531 167.757812 97.222656 170.121094 99.875 170.371094 C 101.421875 170.511719 102.875 169.914062 103.867188 168.859375 C 104.578125 168.101562 105.050781 167.113281 105.152344 165.996094 L 109.792969 116.804688 C 110.039062 114.140625 108.082031 111.777344 105.425781 111.53125 C 102.773438 111.289062 100.414062 113.234375 100.152344 115.90625 Z M 80.007812 96.996094 L 75.371094 146.183594 C 75.121094 148.84375 77.070312 151.203125 79.730469 151.457031 C 81.277344 151.597656 82.722656 150.996094 83.714844 149.941406 C 84.425781 149.183594 84.902344 148.195312 85 147.078125 L 89.644531 97.886719 C 89.894531 95.226562 87.941406 92.867188 85.28125 92.621094 C 82.628906 92.375 80.269531 94.316406 80.007812 96.996094 Z M 133.3125 229.824219 L 128.675781 279.019531 C 128.421875 281.667969 130.375 284.035156 133.03125 284.277344 C 134.578125 284.421875 136.023438 283.824219 137.015625 282.765625 C 137.726562 282.007812 138.199219 281.023438 138.304688 279.90625 L 142.945312 230.714844 C 143.199219 228.0625 141.242188 225.699219 138.589844 225.449219 C 135.933594 225.203125 133.574219 227.152344 133.3125 229.824219 Z M 78.148438 168.703125 C 75.488281 168.453125 73.128906 170.402344 72.867188 173.074219 L 68.230469 222.269531 C 67.984375 224.925781 69.9375 227.292969 72.589844 227.535156 C 74.148438 227.683594 75.585938 227.082031 76.582031 226.023438 C 77.289062 225.265625 77.765625 224.285156 77.867188 223.160156 L 82.507812 173.972656 C 82.753906 171.3125 80.800781 168.953125 78.148438 168.703125 Z M 62.339844 154.851562 L 69.496094 78.96875 C 69.746094 76.3125 67.796875 73.953125 65.136719 73.707031 C 62.480469 73.460938 60.125 75.402344 59.859375 78.078125 L 52.6875 154.128906 C 52.683594 154.191406 52.714844 154.257812 52.707031 154.332031 L 43.847656 248.246094 C 43.597656 250.898438 45.554688 253.261719 48.210938 253.503906 C 49.765625 253.652344 51.203125 253.050781 52.195312 251.996094 C 52.910156 251.238281 53.382812 250.253906 53.484375 249.128906 L 62.359375 155.058594 C 62.371094 154.984375 62.335938 154.921875 62.339844 154.855469 Z M 33.417969 234.367188 C 34.128906 233.609375 34.601562 232.621094 34.710938 231.507812 L 43.578125 137.429688 C 43.824219 134.769531 41.875 132.410156 39.222656 132.160156 C 36.5625 131.910156 34.203125 133.859375 33.945312 136.53125 L 25.070312 230.621094 C 24.820312 233.273438 26.773438 235.632812 29.433594 235.878906 C 30.984375 236.023438 32.425781 235.425781 33.417969 234.371094 Z M 93.015625 191.988281 L 88.378906 241.1875 C 88.136719 243.84375 90.078125 246.203125 92.738281 246.449219 C 94.289062 246.59375 95.734375 245.996094 96.726562 244.9375 C 97.4375 244.183594 97.90625 243.195312 98.015625 242.082031 L 102.648438 192.886719 C 102.898438 190.226562 100.949219 187.867188 98.292969 187.613281 C 95.628906 187.363281 93.269531 189.3125 93.015625 191.988281 Z M 93.015625 191.988281 " fill-opacity="1" fill-rule="nonzero"/></g></g></g></svg>