<?xml version="1.0" encoding="UTF-8"?>
<svg xmlns="http://www.w3.org/2000/svg" xmlns:xlink="http://www.w3.org/1999/xlink" viewBox="0 0 512 512" width="512px" height="512px">
<g id="surface31162042">
<path style=" stroke:none;fill-rule:nonzero;fill:rgb(100%,100%,100%);fill-opacity:1;" d="M 256 -4 C 112.410156 -4 -4 112.410156 -4 256 C -4 378.769531 81.121094 481.601562 195.550781 508.859375 C 189.628906 507.449219 183.761719 505.871094 178 504.070312 L 178 444.5 C 178 444.5 168.25 447.75 155.25 447.75 C 118.878906 447.75 103.769531 415.300781 100 399 C 97.710938 389.070312 91.730469 379.660156 85.308594 373.910156 C 77.640625 367.070312 74.050781 367.050781 74 364.710938 C 73.898438 359.800781 80.578125 360 83.75 360 C 100 360 112.320312 377.289062 118.039062 386.230469 C 132.210938 408.300781 147.421875 412 155.25 412 C 165 412 173.421875 410.539062 179.21875 407.738281 C 181.898438 388.859375 190.300781 372.039062 204 360 C 143.03125 347.808594 100 312.839844 100 256 C 100 226.71875 111.75 199.808594 131.328125 178.078125 C 129.328125 172.410156 126 160.941406 126 142.25 C 126 129.898438 126.859375 114.738281 132.5 100 C 132.5 100 169.578125 100.261719 204.550781 133.378906 C 220.691406 128.679688 237.960938 126 256 126 C 274.039062 126 291.308594 128.679688 307.449219 133.378906 C 342.421875 100.261719 379.5 100 379.5 100 C 385.171875 114.738281 386 129.898438 386 142.25 C 386 162.398438 383.320312 174.148438 381.679688 179.21875 C 400.660156 200.75 412 227.238281 412 256 C 412 312.839844 368.96875 347.808594 308 360 C 324.28125 374.300781 334 395.128906 334 418.5 L 334 504.070312 C 328.238281 505.878906 322.378906 507.449219 316.449219 508.859375 C 430.878906 481.601562 516 378.769531 516 256 C 516 112.410156 399.589844 -4 256 -4 Z M 274.128906 515.300781 C 268.140625 515.71875 262.101562 516 256 516 C 262.101562 516 268.128906 515.710938 274.128906 515.300781 Z M 313.859375 509.460938 C 302.21875 512.109375 290.289062 513.96875 278.109375 515 C 290.289062 513.96875 302.21875 512.101562 313.859375 509.460938 Z M 256 516 C 249.898438 516 243.859375 515.71875 237.871094 515.300781 C 243.871094 515.710938 249.898438 516 256 516 Z M 233.878906 515 C 221.710938 513.96875 209.769531 512.109375 198.140625 509.460938 C 209.78125 512.101562 221.710938 513.96875 233.878906 515 Z M 233.878906 515 "/>
</g>
</svg>
